<?xml version="1.0" encoding="UTF-8" standalone="no"?>
<svg width="50px" height="48px" viewBox="0 0 50 48" version="1.1" xmlns="http://www.w3.org/2000/svg" xmlns:xlink="http://www.w3.org/1999/xlink">
    <!-- Generator: Sketch 44 (41411) - http://www.bohemiancoding.com/sketch -->
    <title>github</title>
    <desc>Created with Sketch.</desc>
    <defs></defs>
    <g id="Page-1" stroke="none" stroke-width="1" fill="none" fill-rule="evenodd">
        <g id="Design1" transform="translate(-545.000000, -455.000000)" fill="#FFFFFF">
            <g id="Content" transform="translate(468.000000, 352.000000)">
                <g id="Icons" transform="translate(77.000000, 103.000000)">
                    <g id="github">
                        <path d="M25,0 C11.1875,0 0,11.0234974 0,24.6197598 C0,35.4986161 7.1625,44.7248711 17.09375,47.9777569 C18.34375,48.2085671 18.803125,47.448432 18.803125,46.7929309 C18.803125,46.2082116 18.78125,44.6602443 18.771875,42.6075718 C11.815625,44.0939898 10.35,39.3054465 10.35,39.3054465 C9.2125,36.4618642 7.56875,35.7048066 7.56875,35.7048066 C5.303125,34.1783815 7.74375,34.2091562 7.74375,34.2091562 C10.253125,34.3814945 11.571875,36.7449915 11.571875,36.7449915 C13.803125,40.5087373 17.425,39.4223904 18.853125,38.791509 C19.078125,37.200457 19.721875,36.1141101 20.4375,35.4986161 C14.884375,34.8831221 9.05,32.7658228 9.05,23.3333773 C9.05,20.6467461 10.01875,18.4494325 11.621875,16.7260493 C11.340625,16.1044004 10.496875,13.6024173 11.840625,10.2110454 C11.840625,10.2110454 13.934375,9.54938933 18.715625,12.7345707 C20.715625,12.1867811 22.840625,11.9159637 24.965625,11.9036539 C27.090625,11.9159637 29.215625,12.1867811 31.215625,12.7345707 C35.965625,9.54938933 38.059375,10.2110454 38.059375,10.2110454 C39.403125,13.6024173 38.559375,16.1044004 38.309375,16.7260493 C39.903125,18.4494325 40.871875,20.6467461 40.871875,23.3333773 C40.871875,32.7904426 35.028125,34.8738897 29.465625,35.4801513 C30.340625,36.2187441 31.153125,37.7267044 31.153125,40.0348069 C31.153125,43.3276998 31.121875,45.9743239 31.121875,46.7744661 C31.121875,47.4207348 31.559375,48.1901023 32.840625,47.9439047 C42.84375,44.7156387 50,35.4832288 50,24.6197598 C50,11.0234974 38.80625,0 25,0" id="Shape"></path>
                    </g>
                </g>
            </g>
        </g>
    </g>
</svg>
